# xmcd
#
# Track frame offsets: 
#        150
#        12447
#        26317
#        40180
#        53022
#        66167
#        79505
#        92417
#        106565
#        118135
#        131710
#        142265
#        152947
#        164134
#
# Disc length: 2377 seconds
#
# Revision: 0
# Processed by: cddbd v1.5.1PL0 Copyright (c) Steve Scherf et al.
# Submitted via: ExactAudioCopy v0.95a5
#
DISCID=b609470e
DTITLE=Paulinho do Sax - Paulinho do Sax
DYEAR=1900
DGENRE=Instrumental
TTITLE0=Paulinho do Sax - Tico-Tico no Fubá
TTITLE1=Paulinho do Sax - Até Mais Ver
TTITLE2=Paulinho do Sax - Tenho Pena de Você
TTITLE3=Paulinho do Sax - Encostar a Cabecinha
TTITLE4=Paulinho do Sax - Na Parede da Paixão
TTITLE5=Paulinho do Sax - Choorando Se Foi
TTITLE6=Paulinho do Sax - Brasileirinho
TTITLE7=Paulinho do Sax - Melô da Barata
TTITLE8=Paulinho do Sax - Para Vigo Me Voy
TTITLE9=Paulinho do Sax - Surra de Amor
TTITLE10=Paulinho do Sax - Saxofone Porque Choras
TTITLE11=Paulinho do Sax - Delicado
TTITLE12=Paulinho do Sax - Calafrio
TTITLE13=Paulinho do Sax - Tema de Alípio
EXTD=
EXTT0=
EXTT1=
EXTT2=
EXTT3=
EXTT4=
EXTT5=
EXTT6=
EXTT7=
EXTT8=
EXTT9=
EXTT10=
EXTT11=
EXTT12=
EXTT13=
PLAYORDER=
